<?xml version="1.0" encoding="UTF-8"?>
<svg id="Layer_1" data-name="Layer 1" xmlns="http://www.w3.org/2000/svg" viewBox="0 0 383.2 177.55">
  <defs>
    <style>
      .cls-1 {
        fill: #fffef0;
      }

      .cls-1, .cls-2 {
        stroke: #ffb600;
        stroke-miterlimit: 10;
      }

      .cls-2 {
        fill: none;
      }
    </style>
  </defs>
  <circle id="Ellipse_10" data-name="Ellipse 10" class="cls-1" cx="152.83" cy="87.42" r="44.62"/>
  <path id="Path_775" data-name="Path 775" class="cls-1" d="M164.8,89.33c-21.16,12.63-28.08,40.02-15.45,61.19,12.63,21.16,40.02,28.08,61.19,15.45,11.53-6.88,19.35-18.59,21.29-31.88h0"/>
  <path id="Path_776" data-name="Path 776" class="cls-1" d="M229.86,50.13c0-.16,0-.31,0-.47.01-24.64-19.96-44.63-44.6-44.64-24.64-.01-44.63,19.96-44.64,44.6v.04c0,1.14.04,2.27.13,3.39,1.17,15.45,10.28,29.18,24.05,36.28,2.03,1.05,4.14,1.94,6.3,2.66"/>
  <path id="Path_778" data-name="Path 778" class="cls-2" d="M229.69,35.2c29.55,1.53,56.51,4.84,79.03,9.45"/>
  <path id="Path_779" data-name="Path 779" class="cls-2" d="M326.56,48.81c30.94,8.26,49.88,19.36,49.88,31.58,0,13.59-23.45,25.81-60.76,34.25"/>
  <path id="Path_780" data-name="Path 780" class="cls-2" d="M55.12,49.55c22.66-6.32,52.18-11.06,85.61-13.49"/>
  <path id="Path_781" data-name="Path 781" class="cls-1" d="M316,117.01c0,5.06-4.1,9.17-9.17,9.17s-9.17-4.1-9.17-9.17,4.1-9.17,9.17-9.17c5.06,0,9.17,4.1,9.17,9.17h0Z"/>
  <path id="Path_782" data-name="Path 782" class="cls-1" d="M56.52,54.41c0,5.06-4.1,9.17-9.17,9.17s-9.17-4.1-9.17-9.17,4.1-9.17,9.17-9.17c5.06,0,9.17,4.1,9.17,9.17h0Z"/>
  <path id="Path_783" data-name="Path 783" class="cls-1" d="M326.73,47.07c0,5.06-4.1,9.17-9.17,9.17s-9.17-4.1-9.17-9.17,4.1-9.17,9.17-9.17c5.06,0,9.17,4.1,9.17,9.17h0Z"/>
  <circle id="Ellipse_10-2" data-name="Ellipse 10" class="cls-1" cx="215.72" cy="92.47" r="44.62"/>
  <path id="Path_777" data-name="Path 777" class="cls-2" d="M38.2,55.03c-19.15,7.28-30.28,15.99-30.28,25.36,0,19.45,48.02,36.09,115.98,42.88h0c5.26.53,10.63,1,16.12,1.4,1.03.07,2.07.15,3.11.22.2.02.4.03.6.04,13.81.94,28.26,1.49,43.16,1.59h0c1.76.01,3.52.02,5.28.02,6.38,0,12.67-.08,18.89-.24,4.15-.11,8.26-.25,12.32-.43,2.72-.11,5.42-.24,8.11-.39,5.18-.28,10.27-.62,15.29-1.01h0c18.39-1.42,35.53-3.55,50.95-6.26"/>
</svg>