<?xml version="1.0" encoding="UTF-8"?>
<svg id="Layer_1" data-name="Layer 1" xmlns="http://www.w3.org/2000/svg" viewBox="0 0 228.1 150.86">
  <defs>
    <style>
      .cls-1 {
        fill: none;
        stroke: #0878ff;
      }
    </style>
  </defs>
  <g id="Group_586" data-name="Group 586">
    <rect id="Rectangle_199" data-name="Rectangle 199" class="cls-1" x="44.06" y="6.86" width="139.2" height="139.2"/>
    <rect id="Rectangle_200" data-name="Rectangle 200" class="cls-1" x="50.83" y="13.63" width="125.66" height="125.66"/>
    <line id="Line_86" data-name="Line 86" class="cls-1" x1="183.26" y1="137.76" x2="209.09" y2="137.76"/>
    <path id="Path_760" data-name="Path 760" class="cls-1" d="M225.69,137.76c0,4.58-3.72,8.3-8.3,8.3s-8.3-3.72-8.3-8.3c0-4.58,3.72-8.3,8.3-8.3h0c4.58,0,8.3,3.72,8.3,8.3h0Z"/>
    <line id="Line_87" data-name="Line 87" class="cls-1" x1="183.26" y1="112.16" x2="209.09" y2="112.16"/>
    <path id="Path_761" data-name="Path 761" class="cls-1" d="M225.69,112.16c0,4.58-3.72,8.3-8.3,8.3-4.58,0-8.3-3.72-8.3-8.3,0-4.58,3.72-8.3,8.3-8.3h0c4.58,0,8.3,3.72,8.3,8.3h0Z"/>
    <line id="Line_88" data-name="Line 88" class="cls-1" x1="183.26" y1="86.56" x2="209.09" y2="86.56"/>
    <path id="Path_762" data-name="Path 762" class="cls-1" d="M225.69,86.56c0,4.58-3.72,8.3-8.3,8.3s-8.3-3.72-8.3-8.3,3.72-8.3,8.3-8.3,8.3,3.72,8.3,8.3h0Z"/>
    <line id="Line_89" data-name="Line 89" class="cls-1" x1="183.26" y1="60.96" x2="209.09" y2="60.96"/>
    <path id="Path_763" data-name="Path 763" class="cls-1" d="M225.69,60.96c0,4.58-3.72,8.3-8.3,8.3-4.58,0-8.3-3.72-8.3-8.3,0-4.58,3.72-8.3,8.3-8.3h0c4.58,0,8.3,3.72,8.3,8.3Z"/>
    <line id="Line_90" data-name="Line 90" class="cls-1" x1="183.26" y1="35.36" x2="209.09" y2="35.36"/>
    <path id="Path_764" data-name="Path 764" class="cls-1" d="M225.69,35.36c0,4.58-3.72,8.3-8.3,8.3s-8.3-3.72-8.3-8.3c0-4.58,3.72-8.3,8.3-8.3h0c4.58,0,8.3,3.72,8.3,8.3h0Z"/>
    <line id="Line_91" data-name="Line 91" class="cls-1" x1="183.26" y1="9.76" x2="209.09" y2="9.76"/>
    <path id="Path_765" data-name="Path 765" class="cls-1" d="M225.69,9.76c0,4.58-3.72,8.3-8.3,8.3s-8.3-3.72-8.3-8.3c0-4.58,3.72-8.3,8.3-8.3h0c4.58,0,8.3,3.72,8.3,8.3h0Z"/>
    <line id="Line_92" data-name="Line 92" class="cls-1" x1="44.21" y1="12.46" x2="18.39" y2="12.46"/>
    <path id="Path_766" data-name="Path 766" class="cls-1" d="M1.78,12.46c0-4.58,3.72-8.3,8.3-8.3,4.58,0,8.3,3.72,8.3,8.3,0,4.58-3.72,8.3-8.3,8.3h0c-4.58,0-8.3-3.72-8.3-8.3h0Z"/>
    <line id="Line_93" data-name="Line 93" class="cls-1" x1="44.21" y1="38.06" x2="18.39" y2="38.06"/>
    <path id="Path_767" data-name="Path 767" class="cls-1" d="M1.78,38.06c0-4.58,3.72-8.3,8.3-8.3,4.58,0,8.3,3.72,8.3,8.3,0,4.58-3.72,8.3-8.3,8.3h0c-4.58,0-8.3-3.72-8.3-8.3h0Z"/>
    <line id="Line_94" data-name="Line 94" class="cls-1" x1="44.21" y1="63.66" x2="18.39" y2="63.66"/>
    <path id="Path_768" data-name="Path 768" class="cls-1" d="M1.78,63.66c0-4.58,3.72-8.3,8.3-8.3,4.58,0,8.3,3.72,8.3,8.3,0,4.58-3.72,8.3-8.3,8.3h0c-4.58,0-8.3-3.72-8.3-8.3Z"/>
    <line id="Line_95" data-name="Line 95" class="cls-1" x1="44.21" y1="89.26" x2="18.39" y2="89.26"/>
    <path id="Path_769" data-name="Path 769" class="cls-1" d="M1.78,89.26c0-4.58,3.72-8.3,8.3-8.3s8.3,3.72,8.3,8.3c0,4.58-3.72,8.3-8.3,8.3h0c-4.58,0-8.3-3.72-8.3-8.3h0Z"/>
    <line id="Line_96" data-name="Line 96" class="cls-1" x1="44.21" y1="114.86" x2="18.39" y2="114.86"/>
    <path id="Path_770" data-name="Path 770" class="cls-1" d="M1.78,114.85c0-4.58,3.72-8.3,8.3-8.3,4.58,0,8.3,3.72,8.3,8.3,0,4.58-3.72,8.3-8.3,8.3h0c-4.58,0-8.3-3.72-8.3-8.3Z"/>
    <line id="Line_97" data-name="Line 97" class="cls-1" x1="44.21" y1="140.45" x2="18.39" y2="140.45"/>
    <path id="Path_771" data-name="Path 771" class="cls-1" d="M1.78,140.45c0-4.58,3.72-8.3,8.3-8.3s8.3,3.72,8.3,8.3c0,4.58-3.72,8.3-8.3,8.3h0c-4.58,0-8.3-3.72-8.3-8.3Z"/>
  </g>
</svg>