<?xml version="1.0" encoding="UTF-8"?>
<svg id="Layer_1" data-name="Layer 1" xmlns="http://www.w3.org/2000/svg" viewBox="0 0 359.95 234.17">
  <defs>
    <style>
      .cls-1 {
        fill: #eef7ff;
      }

      .cls-1, .cls-2 {
        stroke: #0878ff;
        stroke-miterlimit: 10;
        stroke-width: 2px;
      }

      .cls-2 {
        fill: #fff;
      }
    </style>
  </defs>
  <polyline class="cls-2" points="68.39 136.01 51.61 114.82 45.21 112.22 38.81 122.64 9.16 104.89 67.62 4.18 95.14 20.61 89.38 33.41 106.95 44.15 138.41 50.07 114.35 81.85 130.56 93.37 160.43 66.06 179.64 60.08 305.78 141.9 284.48 166.91 219.04 127.51 219.04 127.51 276.36 162.02 256.02 184.8 205.1 155.96 205.1 155.96 253 183.09 233.83 204.62 191.16 183.55 191.16 183.55 227.96 201.72 206.24 220.25 166.41 211.4"/>
  <polygon class="cls-1" points="147.63 37.89 242.37 37.89 257.73 42.16 279.07 32.35 271.81 20.82 299.55 4.18 357.58 104.89 330.27 121.96 320.46 107.88 292.72 133.06 179.64 60.08 160.43 66.06 130.56 93.37 114.35 81.85 147.63 37.89"/>
  <rect class="cls-1" x="61.22" y="133.07" width="29.76" height="35.18" transform="translate(103.83 -15.83) rotate(36.25)"/>
  <rect class="cls-1" x="89" y="134.46" width="31.25" height="57.68" transform="translate(116.83 -30.26) rotate(36.25)"/>
  <rect class="cls-1" x="112.04" y="159.15" width="31.25" height="50.73" transform="translate(133.83 -39.78) rotate(36.25)"/>
  <rect class="cls-1" x="136.33" y="184.69" width="31.25" height="39.98" transform="translate(150.46 -50.24) rotate(36.25)"/>
</svg>