<svg width="1620" height="939" viewBox="0 0 1620 939" fill="none" xmlns="http://www.w3.org/2000/svg">
<circle cx="1156.5" cy="475.5" r="463" stroke="#FFB600"/>
<circle cx="1156.5" cy="475.5" r="375" stroke="#FFB600"/>
<circle cx="1156.5" cy="475.5" r="294" stroke="#FFB600"/>
<circle cx="1160" cy="443" r="85.5" fill="#FFB600" stroke="#FFB600"/>
<circle cx="1156.5" cy="475.5" r="210" stroke="#FFB600"/>
<path d="M374.747 538.14L612.02 432.066L849.293 538.14H374.747Z" fill="black" stroke="#EEF7FF"/>
<path d="M54.5773 538.14L383.634 432.044L712.69 538.14H54.5773Z" fill="black" stroke="#EEF7FF"/>
<path d="M667.136 538.14L905.265 357.627L1143.39 538.14H667.136Z" fill="black" stroke="#EEF7FF"/>
<path d="M875.679 538.14L1112.95 432.066L1350.22 538.14H875.679Z" fill="black" stroke="#EEF7FF"/>
<path d="M1087.76 537.967L1325.47 404.493L1563.17 537.967H1087.76Z" fill="black" stroke="#EEF7FF"/>
<circle cx="1220" cy="16" r="15.5" fill="black" stroke="#FFB600"/>
<circle cx="893" cy="209" r="15.5" fill="black" stroke="#FFB600"/>
<circle cx="1358" cy="262" r="15.5" fill="black" stroke="#FFB600"/>
<circle cx="1527" cy="416" r="15.5" fill="black" stroke="#FFB600"/>
<circle cx="1029" cy="311" r="15.5" fill="black" stroke="#FFB600"/>
<circle cx="700" cy="397" r="15.5" fill="black" stroke="#FFB600"/>
</svg>
