<?xml version="1.0" encoding="UTF-8"?>
<svg id="Layer_1" data-name="Layer 1" xmlns="http://www.w3.org/2000/svg" viewBox="0 0 265.59 80.32">
  <defs>
    <style>
      .cls-1 {
        fill: #cecece;
      }

      .cls-1, .cls-2 {
        stroke-width: 0px;
      }

      .cls-2 {
        fill: #fff;
      }
    </style>
  </defs>
  <path class="cls-1" d="M71.69,30.72c.01.17.03.34.03.51,0,.19-.02.38-.02.57,0,13.09,0,26.18,0,39.27,0,.17,0,.33,0,.5,0,.46-.03.48-.47.42-.15-.02-.3-.01-.46-.01-3.35,0-6.71,0-10.06,0-.2,0-.4,0-.64,0,.02-.3.04-.54.04-.79,0-11.13,0-22.26,0-33.39,0-.25,0-.49.01-.74.19-.06.39-.09.57-.18,1.07-.58,2.13-1.17,3.2-1.75,1.22-.66,2.46-1.31,3.68-1.98.93-.51,1.85-1.04,2.77-1.57.46-.27.9-.56,1.35-.84Z"/>
  <path class="cls-1" d="M57.29,71.99c-.41,0-.81-.01-1.22-.01-3.02,0-6.05,0-9.07,0-.31,0-.63.04-.94.07-.29.02-.39-.12-.35-.39.03-.19.06-.37.06-.56,0-8.41,0-16.82,0-25.23,0-.27,0-.54-.01-.81,1.72-.95,3.44-1.89,5.17-2.84,1.34-.74,2.69-1.47,4.03-2.22.8-.44,1.59-.89,2.39-1.34,0,.25.02.5.03.75,0,.15-.01.3-.01.46,0,10.4,0,20.8,0,31.2,0,.15,0,.3.01.46-.03.16-.06.31-.09.47Z"/>
  <path class="cls-2" d="M57.35,38.65c-.8.45-1.59.9-2.39,1.34-1.34.74-2.69,1.48-4.03,2.22-1.72.95-3.44,1.89-5.17,2.84,0-.23.01-.46.01-.69,0-9.41,0-18.83,0-28.24,0-.09.02-.19,0-.27-.19-.55.16-.78.57-.96.74-.33,1.48-.65,2.21-.99,1.2-.55,2.4-1.1,3.59-1.65.6-.27,1.19-.54,1.79-.82,1.02-.47,2.03-.95,3.05-1.42.11-.05.24-.08.36-.12,0,.18.02.35.02.53,0,9.24,0,18.49,0,27.73,0,.16-.01.33-.02.49Z"/>
  <path class="cls-2" d="M32.65,21.25c.61-.27,1.23-.52,1.83-.8.87-.4,1.73-.83,2.59-1.24.8-.38,1.59-.76,2.39-1.13.85-.39,1.7-.78,2.56-1.15.32-.14.66-.26.98-.39,0,.18.02.35.02.53,0,9.65,0,19.3,0,28.95,0,.19,0,.38-.01.57-.21.09-.42.17-.62.28-.95.51-1.89,1.03-2.83,1.55-.27.15-.4.07-.52-.18-.33-.67-.69-1.33-1.03-2-.12-.25-.26-.31-.51-.16-.27.17-.56.3-.83.46-1.75,1.03-3.49,2.06-5.23,3.09,0-.18-.01-.36-.02-.54,0-.22,0-.43,0-.65,0-8.52,0-17.05,0-25.57,0-.11,0-.23,0-.34-.01-.73.08-.86.8-1.11.14-.05.28-.11.42-.17Z"/>
  <path class="cls-2" d="M71.69,30.72c-.45.28-.89.57-1.35.84-.92.53-1.84,1.06-2.77,1.57-1.22.67-2.45,1.32-3.68,1.98-1.07.58-2.13,1.17-3.2,1.75-.17.09-.38.12-.57.18,0-.15-.01-.3-.01-.46,0-9.09,0-18.17,0-27.26,0-.82.01-.8.79-1.14,1.18-.52,2.34-1.09,3.52-1.63,2.32-1.07,4.65-2.14,6.98-3.21.07-.03.14-.04.26-.07.02.15.04.26.04.38,0,8.95,0,17.89,0,26.84,0,.08,0,.15-.01.23Z"/>
  <path class="cls-2" d="M17.09,33.84c0-1.61.02-3.23,0-4.84,0-.37.12-.58.46-.73,1.59-.71,3.17-1.44,4.75-2.17,1.49-.69,2.97-1.39,4.45-2.08.42-.2.84-.41,1.26-.62.25-.08.5-.16.75-.23,0,.23.01.46.01.69,0,8.85,0,17.7,0,26.55,0,.3,0,.61-.01.91-.15.05-.32.09-.46.17-1.32.77-2.65,1.54-3.96,2.33-.26.16-.39.14-.53-.14-.33-.62-.69-1.21-1.02-1.82-.13-.23-.26-.31-.51-.15-.69.42-1.4.82-2.1,1.22-1.02.58-2.05,1.16-3.08,1.74,0-6.94,0-13.87,0-20.81Z"/>
  <path class="cls-2" d="M2.98,47.8c0-3.95,0-7.9,0-11.85,0-.41.12-.63.51-.81,2.79-1.26,5.56-2.55,8.33-3.83.83-.38,1.65-.78,2.48-1.17.05-.03.12-.04.28-.08,0,2.06,0,4.06,0,6.07,0,6.47,0,12.95,0,19.42,0,.22,0,.43-.01.65-.29.15-.59.28-.88.45-1.96,1.12-3.91,2.25-5.87,3.37-1.61.93-3.22,1.87-4.83,2.8,0-4.79,0-9.59,0-14.38,0-.22,0-.43,0-.65Z"/>
  <path class="cls-2" d="M87.41,45.35c-.25-.63-.5-1.26-.74-1.9-.32-.83-.64-1.67-.95-2.5-.28-.76-.54-1.54-.84-2.3-.27-.68-.59-1.33-.85-2.01-.18-.45-.3-.93-.45-1.39-.03-.08-.05-.16-.08-.24-.04,0-.08,0-.13,0,0,5.49,0,10.99,0,16.48-.99.01-1.98.02-2.97.03,0-7.38,0-14.76,0-22.14,0-.16,0-.33-.03-.49-.1-.42-.07-.48.37-.48,1.03,0,2.06,0,3.09,0,.28,0,.39.09.49.35.36.96.77,1.89,1.13,2.85.54,1.45,1.04,2.91,1.57,4.36.6,1.64,1.22,3.27,1.84,4.91.61,1.63,1.22,3.27,1.84,4.9.02.06.06.11.08.17.08.23.17.46.25.69.03,0,.07,0,.1,0,.08-.26.16-.51.25-.77.27-.75.54-1.49.81-2.23.06-.15.13-.3.19-.45.1-.23.19-.46.29-.69.18-.53.36-1.07.55-1.6.36-1.02.72-2.05,1.09-3.07.22-.6.48-1.18.71-1.77.37-1,.73-2,1.1-2.99.23-.62.48-1.24.71-1.86.3-.79.61-1.59.89-2.39.1-.29.22-.44.55-.43,1.04.02,2.08.02,3.12,0,.29,0,.4.1.37.37,0,.02,0,.05,0,.08,0,7.54,0,15.09,0,22.63-1.02.01-2.03.02-3.05.03,0-4.92,0-9.83,0-14.75,0-.37,0-.75-.01-1.12v-.71s-.06,0-.09-.01c-.1.29-.2.58-.29.87-.33.86-.65,1.72-.98,2.57-.21.55-.43,1.09-.62,1.65-.41,1.13-.8,2.26-1.22,3.39-.19.52-.44,1.01-.63,1.53-.41,1.09-.81,2.18-1.22,3.27-.21.56-.44,1.11-.66,1.66-.21.54-.41,1.09-.62,1.63-.77,0-1.55.03-2.32,0-.14,0-.27-.2-.4-.3-.2-.49-.41-.98-.6-1.48-.39-1.02-.77-2.05-1.14-3.07-.08-.23-.16-.46-.23-.7-.08-.2-.16-.41-.23-.61Z"/>
  <path class="cls-1" d="M17.09,54.65c1.03-.58,2.05-1.15,3.08-1.74.7-.4,1.41-.8,2.1-1.22.26-.15.39-.07.51.15.34.61.7,1.21,1.02,1.82.14.27.27.29.53.14,1.31-.79,2.64-1.56,3.96-2.33.14-.08.3-.11.46-.17,0,.18.01.36.01.53,0,5.37,0,10.75,0,16.12,0,1.18-.01,2.36,0,3.54,0,.37-.11.47-.48.47-1.65-.02-3.3,0-4.95,0-2.08,0-4.17,0-6.25,0-.02-.13-.06-.27-.06-.4,0-.19.05-.37.05-.56,0-5.11,0-10.22,0-15.33,0-.35,0-.69,0-1.04Z"/>
  <path class="cls-2" d="M154.9,51.52c-.24-.33-.5-.65-.73-.99-.33-.5-.65-1.01-.97-1.52-.17-.27-.35-.55-.52-.82-.58-.86-1.16-1.71-1.73-2.58-.71-1.09-1.39-2.19-2.09-3.28-.46-.71-.94-1.4-1.4-2.11-.57-.88-1.13-1.76-1.7-2.64-.45-.68-.91-1.35-1.37-2.03-.17-.25-.32-.51-.49-.76-.11-.16-.23-.32-.44-.46v.5c0,.18-.01.36-.01.53,0,5.17,0,10.34,0,15.52,0,.17,0,.33.01.5,0,.04-.01.08-.02.13-1.01.01-2.03.02-3.04.03,0-7.4,0-14.8,0-22.21,0-.15.04-.32-.01-.45-.15-.43.07-.46.41-.45.69.01,1.37.04,2.06-.01.57-.05.8.28,1.06.68.44.68.9,1.34,1.35,2.01.08.12.13.27.21.39.64.99,1.29,1.98,1.94,2.97.18.26.36.51.54.77.53.82,1.05,1.63,1.58,2.45.36.56.71,1.13,1.08,1.68.47.7.98,1.37,1.44,2.08.89,1.37,1.76,2.76,2.64,4.14.03.05.08.09.21.13v-1.09c0-5.22,0-10.44,0-15.66q0-.54.53-.54c.7,0,1.4.02,2.1,0,.34-.01.43.1.43.43-.01,2.87,0,5.74,0,8.61,0,4.69,0,9.37,0,14.06-1.02,0-2.03,0-3.05,0Z"/>
  <path class="cls-2" d="M224.82,39.5c.38.61.76,1.22,1.15,1.82.81,1.25,1.63,2.5,2.44,3.75.11.18.24.34.44.62.08-.28.17-.45.17-.62,0-5.31,0-10.62,0-15.93,0-.21-.05-.42-.08-.67.17-.01.32-.04.48-.04.7,0,1.4.02,2.1-.01.39-.02.49.12.49.5-.02,2.2,0,4.4,0,6.59,0,5.15,0,10.29,0,15.44,0,.19,0,.38,0,.57l-3.04.02c-.27-.4-.55-.8-.82-1.21-.98-1.48-1.96-2.97-2.93-4.45-.76-1.16-1.52-2.32-2.28-3.47-.65-.99-1.31-1.97-1.95-2.96-.88-1.37-1.75-2.75-2.63-4.13-.19-.3-.42-.58-.63-.87-.04,0-.08,0-.12.01-.03.2-.08.39-.08.59,0,5.28,0,10.57,0,15.85,0,.2,0,.41,0,.61-1.02,0-2.03.02-3.05.03,0-7.44,0-14.89,0-22.33,0-.05,0-.1,0-.15q-.06-.63.57-.63c.72,0,1.45.02,2.17,0,.25,0,.4.1.53.29.56.85,1.13,1.71,1.69,2.56.83,1.27,1.65,2.54,2.48,3.81.8,1.22,1.6,2.43,2.4,3.65.18.26.36.51.54.77Z"/>
  <path class="cls-2" d="M260.06,56.86c.22,0,.32.1.31.33-.01.14,0,.28,0,.42.01.33-.16.42-.46.39-.26-.03-.53-.06-.79-.06-59.26,0-118.52,0-177.78,0-.06,0-.13,0-.19,0-.91,0-.92,0-.75-.89.01-.07.14-.12.22-.19.22,0,.43.01.65.01,59.41,0,118.82,0,178.22,0,.19,0,.38,0,.57-.01Z"/>
  <path class="cls-2" d="M117.69,28.43c1.28-.46,2.6-.47,3.93-.47,1.49,0,2.87.42,4.18,1.08,1.49.75,2.66,1.88,3.58,3.25.44.66.73,1.41,1.09,2.13.34.69.5,1.43.63,2.18.08.46.14.93.23,1.39.22,1.21.19,2.42.06,3.63-.27,2.54-1.02,4.92-2.7,6.91-.89,1.05-1.92,1.96-3.21,2.5-.84.35-1.71.65-2.6.85-.54.13-1.14.03-1.71.04-.36,0-.71,0-1.07.01-.68-.11-1.37-.21-2.05-.32-1.31-.38-2.47-1.01-3.53-1.88-1.04-.87-1.84-1.93-2.43-3.11-.44-.88-.71-1.86-1.01-2.81-.16-.51-.25-1.04-.3-1.57-.07-.71-.11-1.42-.12-2.14,0-.69.04-1.37.07-2.06.07-.41.15-.81.22-1.22.08-.38.16-.75.25-1.13.07-.26.14-.52.21-.78.02-.12,0-.26.06-.36.31-.61.64-1.2.94-1.81.41-.82,1.04-1.48,1.67-2.12.75-.76,1.63-1.35,2.6-1.81.33-.13.67-.25,1-.38ZM113.71,39.94c.01,1.98.34,3.88,1.31,5.64.77,1.4,1.85,2.48,3.34,3.08,1.17.47,2.39.59,3.66.44,1.93-.23,3.44-1.14,4.57-2.69,1.25-1.72,1.73-3.71,1.84-5.79.1-1.88-.18-3.72-.92-5.47-.55-1.31-1.37-2.42-2.55-3.25-1.66-1.16-3.51-1.35-5.42-.99-2.28.43-3.79,1.88-4.77,3.93-.77,1.61-1.07,3.31-1.06,5.09Z"/>
  <path class="cls-2" d="M202.78,41.41c.46,1.24.91,2.49,1.37,3.73.61,1.66,1.23,3.31,1.85,4.97.18.48.35.95.52,1.43-.92,0-1.85-.02-2.77,0-.34,0-.56-.08-.66-.4-.79-2.11-1.58-4.21-2.37-6.32-.15-.05-.3-.15-.45-.15-2.42,0-4.84,0-7.26,0q-1.24,0-1.53,1.22c-.2.52-.41,1.03-.6,1.55-.32.85-.63,1.7-.94,2.55-.19.51-.39,1.02-.58,1.53-1.06,0-2.13.02-3.19.02.04-.19.05-.39.12-.57.44-1.14.9-2.26,1.34-3.4.6-1.56,1.2-3.12,1.8-4.68.19-.5.38-1.01.56-1.51.1-.23.19-.46.29-.69.13-.37.26-.74.4-1.1.33-.87.67-1.74.99-2.61.5-1.34.96-2.7,1.48-4.04.44-1.16.94-2.31,1.4-3.47.1-.26.15-.54.28-.78.07-.13.25-.26.39-.27.8-.02,1.6,0,2.4-.01.26,0,.38.12.47.35.22.62.46,1.23.69,1.85.61,1.63,1.21,3.27,1.81,4.9.64,1.73,1.29,3.45,1.94,5.18.09.24.19.48.28.71ZM192.91,41.82h6.74c-1.11-3.09-2.2-6.14-3.31-9.26-1.15,3.11-2.28,6.16-3.43,9.26Z"/>
  <path class="cls-2" d="M256.33,49.45c-.59-1.57-1.19-3.14-1.78-4.71-.08-.03-.16-.07-.24-.07-2.76,0-5.52,0-8.29,0-.11,0-.22.14-.33.22-.55,1.47-1.1,2.94-1.64,4.42-.27.73-.52,1.46-.77,2.19-1.09,0-2.18.02-3.28.03.16-.48.3-.97.49-1.45.34-.88.7-1.76,1.04-2.64.31-.8.61-1.6.91-2.41.1-.23.19-.46.29-.69.13-.38.24-.77.38-1.15.33-.86.68-1.7,1-2.56.5-1.35.97-2.7,1.48-4.04.44-1.15.93-2.29,1.38-3.44.19-.5.31-1.03.5-1.53.19-.52.43-1.02.64-1.53.18-.44.36-.89.51-1.34.09-.26.23-.35.5-.35.79.02,1.57,0,2.36.02.14,0,.34.12.4.24.27.57.51,1.15.73,1.74.21.58.37,1.17.58,1.75.42,1.15.86,2.29,1.3,3.43.1.26.2.52.3.78.21.59.4,1.18.62,1.76.45,1.21.92,2.41,1.36,3.62.57,1.54,1.13,3.1,1.71,4.64.34.91.72,1.81,1.06,2.72.29.79.55,1.59.82,2.39-1.07.01-2.14.02-3.2.04l-.52-1.31c-.1-.26-.2-.52-.3-.78ZM253.52,41.82c-1.11-3.09-2.19-6.11-3.27-9.13-.03,0-.06,0-.09,0-1.12,3.03-2.25,6.06-3.39,9.14h6.75Z"/>
  <path class="cls-1" d="M2.99,62.82c1.61-.93,3.22-1.87,4.83-2.8,1.95-1.13,3.91-2.25,5.87-3.37.28-.16.58-.3.88-.45,0,1.19,0,2.39.01,3.58,0,4.06,0,8.12,0,12.18-1.74,0-3.48.01-5.22.01-2.12,0-4.24,0-6.37-.01,0-3.04,0-6.09,0-9.13Z"/>
  <path class="cls-2" d="M172.82,51.54c0-6.54,0-13.07,0-19.61,0-.18,0-.36-.01-.53-.1-.05-.2-.14-.3-.14-.41-.02-.81,0-1.22,0-1.93,0-3.86.01-5.79.02-.03-.06-.07-.11-.07-.17,0-.87,0-1.73,0-2.67,5.92,0,11.79,0,17.66,0,.01.71.02,1.42.04,2.13,0,.23,0,.45-.01.68-2.26,0-4.52,0-6.78.01q-.54,0-.54.54c0,6.39,0,12.78,0,19.17,0,.14,0,.28.01.42,0,.04-.01.08-.02.13-.99.01-1.98.02-2.97.03Z"/>
  <path class="cls-2" d="M218.96,72.07c-.34,0-.68-.02-1.03-.02-.3,0-.48-.07-.31-.42.06-.12.03-.27.03-.41,0-2.75,0-5.5,0-8.25.61.01,1.22.02,1.82.03.24.65.47,1.3.72,1.94.41,1.04.83,2.07,1.24,3.11.21.54.38,1.1.56,1.65.02.04.05.08.1.18.33-.32.44-.71.58-1.08.24-.64.47-1.28.71-1.91.1-.26.2-.52.3-.78.16-.46.3-.92.47-1.37.23-.6.49-1.18.74-1.77.61.01,1.22.02,1.82.03v9.05c-.24,0-.47,0-.71,0-.23,0-.53.06-.66-.06-.11-.09,0-.42,0-.64,0-1.7,0-3.41,0-5.11,0-.17-.06-.35-.18-.55-.14.32-.28.65-.41.98-.44,1.18-.88,2.35-1.32,3.53-.19.52-.37,1.05-.59,1.56-.05.13-.23.24-.37.28-.23.06-.48.08-.71.06-.11,0-.26-.13-.3-.24-.45-1.19-.88-2.39-1.32-3.58-.21-.58-.44-1.15-.67-1.72-.12-.37-.24-.75-.35-1.12-.03,0-.06.02-.09.03v1.32c0,1.55,0,3.11,0,4.66-.03.21-.06.42-.08.62Z"/>
  <path class="cls-2" d="M211.32,69.76c.36-.96.72-1.92,1.08-2.87.1-.26.2-.52.3-.78.22-.6.42-1.2.65-1.79.17-.45.37-.9.56-1.35.61.01,1.22.02,1.82.03v9.09c-.45,0-.88,0-1.3-.01-.05,0-.12-.18-.12-.27.01-1.86.04-3.73.05-5.59,0-.17-.06-.33-.18-.51-.07.15-.15.31-.21.46-.51,1.34-1.01,2.68-1.51,4.02-.2.52-.4,1.04-.58,1.56-.07.22-.19.3-.41.3-.23,0-.45.06-.68.04-.11,0-.27-.1-.3-.19-.45-1.18-.87-2.36-1.31-3.54-.25-.68-.51-1.36-.77-2.04-.1-.29-.2-.58-.3-.87-.02,0-.05.01-.07.02v1.23c0,1.58,0,3.16,0,4.74-.03.21-.06.42-.08.62-.34,0-.68-.02-1.03-.02-.3,0-.48-.07-.31-.42.06-.12.03-.27.03-.41,0-2.75,0-5.5,0-8.25.61.01,1.22.02,1.82.03.03.07.06.13.09.2.1.26.19.52.29.78.23.65.45,1.3.69,1.94.22.6.45,1.19.68,1.78.05.13.12.25.18.37.1.26.19.52.29.78.06.17.12.34.17.52.09.23.18.47.3.8.07-.21.1-.31.13-.41Z"/>
  <path class="cls-2" d="M129.82,66.02c0,1.88,0,3.76-.02,5.64,0,.35-.15.47-.48.44-.26-.02-.53-.04-.79-.06,0-.22-.02-.43-.02-.65,0-2.73,0-5.46-.01-8.2,0-.08,0-.15.01-.23l1.85.07c.24.67.49,1.33.73,2,.13.35.27.71.4,1.06.43,1.14.87,2.29,1.3,3.43.06.17.12.33.17.5.04,0,.08,0,.13,0,.1-.32.2-.64.3-.95.14-.4.28-.8.43-1.19.36-.95.74-1.89,1.1-2.84.26-.69.51-1.38.76-2.07.61,0,1.22.02,1.82.03,0,2.92,0,5.84,0,8.76,0,.28-.06.4-.37.32-.19-.05-.41-.04-.6.01-.36.11-.39-.1-.38-.35.01-.73.05-1.47.06-2.2.01-1.17,0-2.33,0-3.5,0-.14-.03-.28-.05-.42-.04,0-.09-.01-.13-.02-.12.32-.25.64-.37.96-.2.55-.4,1.11-.6,1.66-.1.26-.19.52-.29.78-.23.58-.46,1.15-.68,1.73-.15.38-.26.79-.44,1.15-.19.37-.6.08-.89.2-.1.04-.37-.12-.42-.24-.44-1.11-.84-2.23-1.26-3.35-.28-.74-.58-1.48-.87-2.22-.04-.11-.07-.22-.1-.33-.07-.22-.14-.44-.21-.66-.03,0-.06.02-.08.03v.71Z"/>
  <path class="cls-2" d="M152.83,69.39c.24.11.35.04.3-.26-.12-.66.04-1.31.02-1.97-.04-1.4-.01-2.79-.01-4.19.43.01.86.02,1.29.03,0,.07.01.13.02.2,0,2.73,0,5.46-.01,8.2,0,.22-.01.43-.02.65-.37,0-.74,0-1.1,0-.27.01-.44-.07-.59-.31-.76-1.2-1.53-2.39-2.31-3.58-.38-.59-.77-1.17-1.16-1.75-.15-.22-.31-.45-.46-.67-.05-.05-.11-.1-.16-.14-.05.07-.12.13-.13.2-.02.11-.01.23-.01.34,0,1.87,0,3.73,0,5.6,0,.28-.04.44-.38.34-.17-.05-.38-.02-.57,0-.37.05-.44,0-.41-.38.03-.36.06-.73.06-1.09,0-2.14,0-4.29,0-6.43,0-.33-.05-.65-.07-.98,0-.07.05-.14.07-.21.51.03,1.01.06,1.52.09.27.44.53.88.8,1.32.9,1.39,1.8,2.78,2.7,4.16.02.03.05.06.07.09.18.26.36.51.54.77Z"/>
  <path class="cls-2" d="M118.13,69.53c-.04-.09-.08-.19-.11-.28-.25-.7-.58-.94-1.31-.94-.7,0-1.4,0-2.1,0-.45,0-.51.06-.51.5,0,.88,0,1.75.01,2.63-.03.21-.06.42-.08.62-.34,0-.68-.02-1.03-.02-.3,0-.48-.07-.31-.42.06-.12.03-.27.03-.41,0-2.75,0-5.5,0-8.25,1.45,0,2.9,0,4.36,0,.17,0,.35.03.52.05,1.06.17,1.84.75,2.08,1.8.21.91.07,1.83-.7,2.51-.25.22-.38.36-.02.66.42.35.49.91.56,1.45.08.67.17,1.34.29,2.01.03.18.16.34.28.57-.15.01-.28.03-.4.03-.27,0-.53-.02-.8,0-.36.04-.56-.11-.59-.47-.02-.27,0-.53-.01-.8-.02-.29-.06-.59-.09-.88-.03-.13-.05-.25-.08-.38ZM115.78,64.15s0,.03,0,.04c-.44,0-.89,0-1.33,0-.23,0-.35.05-.35.32.01.76.01,1.52,0,2.28,0,.24.1.3.32.3.7,0,1.4.01,2.09,0,.3,0,.61-.05.9-.12.57-.14.96-.71.96-1.35,0-.62-.34-1.2-.89-1.31-.55-.11-1.13-.11-1.69-.15Z"/>
  <path class="cls-2" d="M242.8,67.24c-.1.09-.24.17-.3.29-.05.09-.05.3,0,.34.58.42.66,1.04.7,1.68.02.42,0,.84.09,1.24.09.4.27.79.44,1.23-.1.02-.21.05-.32.05-.27.02-.55,0-.82.04-.34.04-.56-.17-.55-.52-.02-.35-.01-.7-.07-1.05-.08-.49-.2-.97-.3-1.46-.23-.51-.62-.77-1.18-.77-.74,0-1.47.02-2.21,0-.38-.01-.52.09-.51.49.03.95,0,1.9,0,2.85,0,.37-.14.49-.51.45-.21-.02-.43-.06-.64-.03-.24.04-.3-.06-.3-.26.02-2.85.05-5.7.07-8.55,0-.18.03-.3.24-.29.32,0,.63,0,.95.01,1.21,0,2.41.02,3.62.03.59.12,1.14.33,1.59.74.13.18.27.35.4.53.31.81.24,1.62,0,2.43-.13.18-.27.35-.4.53ZM239.47,64.16s0,.02,0,.04c-.46,0-.91-.01-1.37.01-.1,0-.28.15-.29.23-.02.81-.02,1.62,0,2.43,0,.07.13.21.2.21,1-.01,2,0,3-.09.64-.06,1.05-.66,1.06-1.34,0-.51-.24-1.25-.97-1.37-.53-.09-1.08-.08-1.62-.12Z"/>
  <path class="cls-2" d="M167.02,65.72c.27-.95.86-1.7,1.6-2.32.2-.17.51-.2.75-.34.63-.37,1.33-.28,2.01-.32.28.04.55.07.83.11,1.09.27,1.99.84,2.53,1.82.3.55.49,1.17.66,1.78.23.83.13,1.68-.07,2.5-.26,1.11-.81,2.03-1.79,2.7-.56.38-1.17.48-1.78.62-.33.01-.66.02-.99.04-.88-.11-1.73-.3-2.43-.92-.52-.47-.9-1.01-1.16-1.65-.31-.74-.46-1.52-.38-2.33.02-.18,0-.36,0-.55.07-.38.15-.75.22-1.13ZM174.14,67.23c-.08-.33-.17-.94-.38-1.5-.39-1.03-1.2-1.64-2.29-1.76-1.1-.12-2,.28-2.66,1.21-.8,1.13-.89,3.42.07,4.74.92,1.26,2.88,1.54,4.1.46.87-.76,1.1-1.79,1.16-3.16Z"/>
  <path class="cls-2" d="M202.18,62.89c.41.18.89.29,1.22.57.43.37.77.86,1.12,1.32.2.27.36.57.5.87.06.12-.02.3.02.43.24.83.2,1.66.07,2.51-.13.87-.53,1.6-1.03,2.29-.21.21-.42.41-.63.62-.65.48-1.4.68-2.19.78-.33,0-.66,0-.99,0-.38-.09-.76-.15-1.13-.28-.95-.33-1.6-1.01-2.05-1.9-.17-.33-.37-.66-.49-1.01-.1-.29-.14-.62-.14-.93,0-.51.04-1.03.07-1.55,0-.07.04-.14.06-.22.08-.33.16-.66.24-.99.4-.99,1.02-1.79,2.02-2.26.84-.39,1.72-.45,2.62-.4.23.05.47.09.7.14ZM197.91,67.47c0,.17,0,.33,0,.5.08,1.24.82,2.63,2.13,2.99,1.11.3,2.36-.05,3-.93.99-1.36,1.06-3.33.19-4.77-.95-1.58-3.2-1.6-4.24-.59-.8.79-1.09,1.73-1.09,2.81Z"/>
  <path class="cls-2" d="M84.13,62.96c.41.08.82.15,1.23.23.27.11.55.23.82.34.73.46,1.24,1.11,1.51,1.92.14.43.18.89.27,1.34,0,.35,0,.71,0,1.06-.16.73-.23,1.5-.52,2.19-.28.67-.83,1.19-1.5,1.55-.75.41-1.55.47-2.38.46-.89,0-1.78-.02-2.67,0-.33,0-.43-.09-.43-.43.01-2.88,0-5.76,0-8.64,1.22,0,2.44-.02,3.66-.02ZM81.84,67.51h0c0,.99,0,1.98,0,2.97,0,.27.09.36.35.35.57-.01,1.14.03,1.71-.01,1.07-.08,1.91-.52,2.35-1.57.42-1.01.4-2.05.19-3.1-.22-1.08-.9-1.76-2.01-1.89-.73-.08-1.47-.05-2.2-.08-.3-.01-.4.08-.4.39.02.98,0,1.96,0,2.93Z"/>
  <path class="cls-2" d="M95.57,70.82c.05.18.15.35.15.53,0,.81.11.7-.7.7-1.82.01-3.63.01-5.45.03-.24,0-.24-.13-.24-.29.02-2.79.05-5.59.07-8.38,0-.08-.03-.17,0-.22.05-.09.15-.15.23-.22.2,0,.41.01.61.01,1.83,0,3.66,0,5.49.01-.03.41-.05.81-.08,1.22-1.54,0-3.08,0-4.62,0-.08,0-.16.05-.24.07,0,.81,0,1.63,0,2.44.14.03.29.07.43.08,1.38,0,2.75,0,4.13.01,0,.34.01.68-.01,1.02,0,.07-.14.14-.22.21-1.28,0-2.56,0-3.84-.01-.52,0-.52,0-.49.53,0,.61,0,1.22,0,1.84-.02.23-.07.46.3.46,1.5-.01,2.99-.01,4.49-.02Z"/>
  <path class="cls-2" d="M234.59,66.8c0,.39,0,.79,0,1.18-.16,0-.33.02-.49.02-1.26,0-2.52,0-3.78.01-.22,0-.31.11-.31.33.01.75.01,1.51.02,2.26-.02.31.22.22.37.22,1.52,0,3.04,0,4.56,0,0,0,0,0,0,0,0,.41-.01.81-.02,1.22-1.98,0-3.96,0-5.94,0-.47,0-.47,0-.38-.48.02-.12.01-.25.01-.38,0-2.74,0-5.48,0-8.22.8,0,1.6,0,2.4,0,1.28,0,2.56.01,3.85.02,0,.2.01.39.02.59q-.03.61-.63.61c-1.27,0-2.53,0-3.8.02-.34-.07-.48.05-.47.41.02.58.02,1.16,0,1.74-.01.36.13.48.47.42,1.37,0,2.74.02,4.11.03Z"/>
  <path class="cls-2" d="M145.67,70.82c.06.21.11.42.17.63-.03.21-.06.42-.08.62-1.71,0-3.42-.01-5.13-.02-.37,0-.74,0-1.1,0,0-.22-.02-.43-.02-.65,0-2.73,0-5.46-.01-8.2,0-.08,0-.15.01-.23,2.08,0,4.17,0,6.25.01-.03.41-.05.81-.08,1.22-1.52,0-3.03,0-4.55,0-.08,0-.16.05-.24.07,0,.81,0,1.63,0,2.44.14.03.29.07.43.08,1.38,0,2.76.01,4.13.02,0,.38.01.76.02,1.14-.15.02-.3.07-.44.07-1.26,0-2.51,0-3.77,0-.15,0-.39-.09-.36.23,0,.81,0,1.63,0,2.44.09.05.19.15.28.15,1.5,0,3,0,4.5,0Z"/>
  <path class="cls-2" d="M195.54,68.49c-.05,1.84-1.24,3.61-3.28,3.76-.43.01-.86.03-1.29.04-.39-.1-.79-.15-1.15-.31-1.07-.46-1.7-1.29-2.1-2.39-.24-.66-.25-1.31-.3-1.98-.05-.69.06-1.31.26-1.93.45-1.43,1.35-2.42,2.84-2.79.05-.01.09-.05.13-.07.28-.03.56-.05.84-.08.28,0,.55.01.83.02.23.05.47.09.7.14.67.3,1.39.55,1.77,1.23.27.49.45,1.03.64,1.56.08.23-.1.26-.29.25-.25-.02-.5-.05-.74-.01-.26.04-.34-.09-.43-.27-.16-.33-.33-.66-.49-.99-.25-.15-.5-.3-.75-.45-1.31-.57-2.77.06-3.29.93-.81,1.37-.87,3.55.07,4.86.82,1.14,2.56,1.47,3.68.56.56-.45.85-1.08.92-1.8,0-.1.05-.19.07-.28.46,0,.91.02,1.37.03Z"/>
  <path class="cls-2" d="M260.36,70.82c.06.21.11.42.17.63-.03.21-.06.42-.08.62-1.89,0-3.78-.01-5.67-.02-.13,0-.27.04-.37-.02-.1-.05-.21-.19-.22-.3-.01-.21.07-.42.07-.62,0-2.71,0-5.43,0-8.14.8,0,1.6,0,2.4,0,1.28,0,2.56.01,3.85.02,0,.2.01.39.02.59q-.03.61-.67.61c-1.29,0-2.58,0-3.86,0-.14,0-.29.05-.43.08v2.44c.14.03.29.07.43.08,1.4,0,2.81.01,4.21.01,0,.39,0,.79,0,1.18-.15,0-.3.02-.45.02-1.27,0-2.55,0-3.82,0-.15,0-.39-.09-.36.23,0,.81,0,1.63,0,2.44.09.05.19.15.28.15,1.5,0,3,0,4.5,0Z"/>
  <path class="cls-2" d="M251.82,63.9c.47.57.8,1.2.8,1.96-.41,0-.79.01-1.18-.01-.08,0-.2-.14-.23-.24-.52-1.87-2.96-2.06-4.09-1.04-.75.68-1.08,1.54-1.1,2.53-.02.69,0,1.36.22,2.03.48,1.45,1.9,2.23,3.37,1.83.84-.23,1.57-1.11,1.66-2.03.03-.34.15-.51.52-.47.29.03.58,0,.97,0-.13.52-.25.97-.35,1.42-.23,1-.96,1.58-1.79,2.05-.35.19-.78.23-1.18.33-.43,0-.86.02-1.29.02-.22-.05-.44-.11-.66-.16-.78-.18-1.43-.58-1.91-1.2-.68-.89-1.05-1.9-.95-3.04.06-.7,0-1.43.18-2.1.38-1.46,1.28-2.49,2.81-2.89,1.14-.3,2.22-.18,3.28.32.07.03.14.05.21.07l.69.62Z"/>
  <path class="cls-2" d="M108.46,63.05c.07.2.15.41.22.61.1.26.2.51.31.77.18.5.34,1,.54,1.5.37.96.76,1.92,1.14,2.88.25.62.49,1.25.74,1.87.16.45.32.91.48,1.36-.43,0-.86,0-1.3,0-.25,0-.35-.12-.43-.34-.22-.65-.48-1.29-.67-1.95-.08-.28-.25-.38-.49-.38-.98-.01-1.96-.01-2.94,0-.1,0-.25.1-.29.19-.17.41-.3.83-.44,1.25-.15.39-.29.77-.44,1.16-.48.02-.96.04-1.45.06.02-.15.05-.3.07-.45.13-.35.25-.69.38-1.04.28-.77.56-1.55.85-2.32.08-.22.21-.43.3-.65.29-.77.56-1.56.87-2.32.28-.69.59-1.37.88-2.06.07-.08.15-.22.22-.22.48,0,.97.03,1.45.06ZM107.66,64.61s-.06,0-.09,0c-.41,1.16-.83,2.32-1.25,3.51h2.6c-.43-1.21-.84-2.36-1.26-3.52Z"/>
  <path class="cls-2" d="M98.55,68.61c0,1.03-.02,2.06-.01,3.09,0,.33-.08.47-.45.37-.2-.05-.43-.01-.64.02-.25.05-.36-.04-.34-.29.02-.21.05-.42.05-.64,0-2.35,0-4.7,0-7.05,0-.17-.06-.35-.05-.52,0-.21.04-.42.06-.63.34,0,.69,0,1.03,0,1.18,0,2.36.02,3.54.03,1.13.16,1.84.83,2.18,1.88.11.35.05.76.03,1.14-.04.84-.37,1.55-1.08,2.01-.49.32-1.04.55-1.66.45-.79,0-1.57-.01-2.36,0-.1,0-.2.09-.3.14ZM98.54,65.71h0c0,.42-.01.84,0,1.25,0,.09.12.26.18.26.91,0,1.83.03,2.73-.08.77-.09,1.12-.63,1.12-1.42,0-.8-.34-1.33-1.12-1.43-.9-.11-1.82-.08-2.73-.08-.07,0-.19.18-.19.29-.02.4,0,.81,0,1.22Z"/>
  <path class="cls-2" d="M182.27,66.77c.03.41.05.81.08,1.22-1.22,0-2.43.01-3.65,0-.28,0-.45.06-.38.38,0,1.1-.01,2.21-.01,3.31,0,.27-.03.44-.38.36-.21-.04-.45.03-.67.05-.23.02-.37-.01-.37-.32.03-2.94.04-5.89.05-8.83,2.01,0,4.01,0,6.02.01-.03.41-.05.81-.08,1.22-1.44,0-2.88,0-4.31,0-.08,0-.16.05-.24.07,0,.81,0,1.63,0,2.44.08.03.16.07.24.07,1.23,0,2.47,0,3.7,0Z"/>
  <path class="cls-2" d="M162.67,63c0,.23-.03.46,0,.68.07.4-.07.56-.47.53-.71,0-1.43-.01-2.14,0-.12,0-.24.05-.35.07,0,2.08-.01,4.16-.02,6.24,0,.38,0,.76,0,1.14,0,.37-.14.48-.51.44-.2-.02-.41-.07-.6-.03-.29.06-.33-.07-.33-.3.03-1.13.06-2.25.07-3.38,0-1.37,0-2.74-.01-4.11-.13-.03-.26-.07-.39-.07-.7,0-1.4-.01-2.09,0-.29,0-.44-.07-.39-.38,0-.07,0-.15-.01-.23,0-.21.01-.41.02-.62,2.01,0,4.01,0,6.02,0,.41,0,.81.02,1.22.03Z"/>
  <path class="cls-2" d="M124.52,72.05c-.32,0-.63-.02-.95,0-.32.03-.41-.1-.4-.41.01-2.28,0-4.56,0-6.84,0-.18,0-.35-.01-.53-.08-.03-.16-.07-.24-.07-.75,0-1.51,0-2.26,0-.16-.01-.32-.02-.46-.03v-1.2c2.41,0,4.83,0,7.24.01-.03.41-.05.81-.08,1.22-.8,0-1.6,0-2.4-.02-.34-.01-.43.11-.43.44.01,1.93,0,3.86,0,5.79,0,.55-.01,1.09-.02,1.64Z"/>
  <path class="cls-1" d="M43.02,71.97c-3.73,0-7.47,0-11.2,0-.3,0-.39-.11-.39-.4,0-7.29,0-14.58,0-21.86,0-.03,0-.05,0-.08,1.74-1.03,3.49-2.06,5.23-3.09.27-.16.56-.3.83-.46.25-.15.38-.09.51.16.34.67.7,1.32,1.03,2,.13.26.25.34.52.18.94-.53,1.88-1.04,2.83-1.55.2-.11.41-.18.62-.28,0,.22.01.43.01.65,0,8.16,0,16.31,0,24.47,0,.09,0,.18,0,.27Z"/>
</svg>