<?xml version="1.0" encoding="UTF-8"?>
<svg id="Layer_1" data-name="Layer 1" width="260" height="400" xmlns="http://www.w3.org/2000/svg" viewBox="0 0 260 400">
  <defs>
    <style>
      .cls-1 {
        fill: none;
        stroke: #0878ff;
        stroke-miterlimit: 10;
        stroke-width: 2px;
      }
    </style>
  </defs>
  <rect class="cls-1" x="5.02" y="362.9" width="249.67" height="32.47"/>
  <polyline class="cls-1" points="167.08 240.23 91.26 240.23 91.26 362.9 254.69 362.9 254.69 240.23 237.34 240.23"/>
  <path class="cls-1" d="M254.69,176.73c0,68.95-55.88,124.83-124.83,124.83,14.14,0,25.62-11.46,25.62-25.62s-11.47-25.6-25.62-25.6c40.65,0,73.59-32.97,73.59-73.61s-32.95-73.61-73.59-73.61h-57.37v-51.22h57.37c68.95,0,124.83,55.88,124.83,124.83Z"/>
  <path class="cls-1" d="M155.48,275.94c0,14.16-11.47,25.62-25.62,25.62s-25.62-11.46-25.62-25.62,11.47-25.6,25.62-25.6,25.62,11.46,25.62,25.6Z"/>
  <path class="cls-1" d="M30.11,327.91c4.68-4.99,11.33-8.12,18.71-8.12s14.03,3.13,18.71,8.12"/>
  <path class="cls-1" d="M35.97,214.61c.29.48.66.92,1.05,1.34,2.12,2.25,5.1,3.65,8.42,3.65s6.3-1.4,8.4-3.65c.39-.42.76-.87,1.07-1.34"/>
  <rect class="cls-1" x="18.37" y="33.48" width="54.13" height="146.14"/>
  <rect class="cls-1" x="31" y="179.61" width="28.86" height="35"/>
  <rect class="cls-1" x="31" y="3.55" width="28.86" height="8.9"/>
  <rect class="cls-1" x="15.21" y="327.9" width="67.22" height="35"/>
  <line class="cls-1" x1="91.25" y1="240.23" x2="5.02" y2="240.23"/>
  <rect class="cls-1" x="26.19" y="12.44" width="38.49" height="21.05"/>
  <line class="cls-1" x1="18.37" y1="12.44" x2="72.49" y2="12.44"/>
  <circle class="cls-1" cx="129.86" cy="275.95" r="9.02"/>
</svg>