<?xml version="1.0" encoding="UTF-8"?>
<svg id="Layer_1" data-name="Layer 1" xmlns="http://www.w3.org/2000/svg" viewBox="0 0 856 289.16">
  <defs>
    <style>
      .cls-1 {
        fill: #f4bf33;
      }

      .cls-1, .cls-2 {
        stroke-width: 0px;
      }

      .cls-2 {
        fill: #fff;
      }
    </style>
  </defs>
  <g>
    <path class="cls-2" d="M111.21,137.54v-10.25h1.88c2.01,0,3.78-.12,5.32-.38,1.54-.25,2.81-.75,3.81-1.51,1-.75,1.76-1.83,2.26-3.25.5-1.41.75-3.28.75-5.6V19l-38.85,118.53h-13.08L32.56,19v95.77c0,2.76.33,4.96.99,6.59.66,1.63,1.6,2.89,2.82,3.76,1.22.88,2.71,1.46,4.47,1.74,1.76.28,3.76.42,6.02.42h1.13v10.25H.2v-10.25h8.09c1.38,0,2.66-.12,3.86-.38,1.19-.25,2.24-.77,3.15-1.55.91-.78,1.61-1.94,2.12-3.48.5-1.54.75-3.56.75-6.07V21.92c0-2.57-.25-4.62-.75-6.16-.5-1.54-1.21-2.71-2.12-3.53-.91-.81-1.96-1.36-3.15-1.65-1.19-.28-2.48-.42-3.86-.42H.2V0h55.5l31.99,93.04L118.36,0h54.47v10.16h-8.09c-1.38,0-2.67.14-3.86.42-1.19.28-2.23.86-3.1,1.74s-1.57,2.13-2.07,3.76c-.5,1.63-.75,3.83-.75,6.59v92.1c0,2.76.25,4.96.75,6.59.5,1.63,1.19,2.89,2.07,3.76.88.88,1.91,1.46,3.1,1.74,1.19.28,2.48.42,3.86.42h8.09v10.25h-61.62Z"/>
    <path class="cls-2" d="M287.32,85.51c0,18.13-4.25,31.64-12.75,40.55-8.5,8.91-21,13.36-37.49,13.36-7.71,0-14.65-1.11-20.79-3.34-6.15-2.23-11.37-5.57-15.66-10.02-4.3-4.45-7.59-10.07-9.88-16.84-2.29-6.77-3.43-14.68-3.43-23.71,0-18.12,4.25-31.61,12.75-40.45,8.5-8.84,21.03-13.26,37.58-13.26,7.71,0,14.63,1.1,20.74,3.29,6.11,2.2,11.32,5.52,15.62,9.97,4.3,4.45,7.59,10.05,9.88,16.79,2.29,6.74,3.43,14.63,3.43,23.66ZM217.23,85.51c0,6.84.36,12.86,1.08,18.06.72,5.21,1.88,9.57,3.48,13.08,1.6,3.51,3.68,6.16,6.26,7.95,2.57,1.79,5.71,2.68,9.41,2.68s6.82-.89,9.36-2.68,4.61-4.44,6.21-7.95c1.6-3.51,2.74-7.87,3.43-13.08.69-5.2,1.03-11.23,1.03-18.06s-.36-12.94-1.08-18.11c-.72-5.17-1.88-9.48-3.48-12.94-1.6-3.45-3.69-6.04-6.26-7.76-2.57-1.72-5.71-2.59-9.41-2.59s-6.84.86-9.41,2.59c-2.57,1.73-4.64,4.31-6.21,7.76-1.57,3.45-2.7,7.76-3.39,12.94-.69,5.17-1.03,11.21-1.03,18.11Z"/>
    <path class="cls-2" d="M377.07,137.54v-63.41c0-4.14-.27-7.82-.8-11.05-.53-3.23-1.41-5.94-2.63-8.14-1.22-2.19-2.82-3.87-4.79-5.03-1.98-1.16-4.38-1.74-7.2-1.74-3.2,0-5.86.82-8,2.45-2.13,1.63-3.84,3.81-5.13,6.54-1.29,2.73-2.21,5.9-2.78,9.5-.56,3.61-.85,7.38-.85,11.34v36.78c0,2.7.33,4.86.99,6.49.66,1.63,1.58,2.9,2.78,3.81,1.19.91,2.65,1.51,4.38,1.79,1.72.28,3.65.42,5.78.42h.56v10.25h-59.17v-10.25h.38c2.19,0,4.2-.14,6.02-.42,1.82-.28,3.4-.89,4.75-1.83,1.35-.94,2.4-2.29,3.15-4.05.75-1.76,1.13-4.08,1.13-6.96v-57.01c0-2.7-.33-4.86-.99-6.49-.66-1.63-1.6-2.9-2.82-3.81-1.22-.91-2.68-1.51-4.37-1.79s-3.61-.42-5.74-.42h-.56v-10.25h40.45l2.54,13.73h.94c1.94-3.64,4-6.52,6.16-8.65,2.17-2.13,4.47-3.76,6.92-4.89s5.03-1.85,7.76-2.16c2.73-.31,5.6-.47,8.61-.47,4.96,0,9.41.72,13.36,2.16,3.95,1.44,7.29,3.67,10.02,6.68,2.73,3.01,4.81,6.85,6.26,11.52,1.44,4.67,2.16,10.27,2.16,16.79v44.69c0,3.01.26,5.41.8,7.2s1.34,3.15,2.4,4.09,2.41,1.57,4.05,1.88c1.63.31,3.54.47,5.74.47h.56v10.25h-42.8Z"/>
    <path class="cls-2" d="M485.35,123.9c2.51,0,4.91-.17,7.2-.52,2.29-.34,4.44-.77,6.45-1.27v12.51c-1,.5-2.37,1.03-4.09,1.6-1.73.56-3.73,1.08-6.02,1.55-2.29.47-4.88.86-7.76,1.18-2.89.31-6.02.47-9.41.47-4.33,0-8.25-.52-11.76-1.55s-6.49-2.76-8.94-5.17c-2.45-2.41-4.33-5.55-5.64-9.41s-1.98-8.61-1.98-14.25v-61.62h-14.49v-9.88c4.14,0,7.84-.81,11.1-2.45,3.26-1.63,5.86-3.51,7.81-5.64,3.95-4.14,6.9-10.5,8.84-19.1h15.99v23.89h24.65v13.17h-24.65v59.64c0,5.83.99,10.1,2.96,12.79,1.98,2.7,5.22,4.05,9.74,4.05Z"/>
    <path class="cls-2" d="M558.54,43.56c-2.45,0-4.5.52-6.16,1.55s-2.99,2.48-4,4.33c-1,1.85-1.71,4.05-2.12,6.59-.41,2.54-.61,5.32-.61,8.33-8.65,0-15.16-.97-19.52-2.92-4.36-1.94-6.54-5.27-6.54-9.97,0-3.51,1.05-6.52,3.15-9.03,2.1-2.51,4.95-4.55,8.56-6.11,3.61-1.57,7.81-2.71,12.61-3.43,4.8-.72,9.93-1.08,15.38-1.08,6.77,0,12.68.58,17.73,1.74,5.05,1.16,9.25,3.03,12.61,5.6,3.36,2.57,5.88,5.94,7.57,10.11,1.69,4.17,2.54,9.27,2.54,15.29v49.11c0,2.63.2,4.83.61,6.59.41,1.76,1.05,3.15,1.93,4.19.88,1.03,2.07,1.77,3.57,2.21,1.51.44,3.32.66,5.46.66h.75v10.25h-35.84l-4.05-13.26h-1.69c-2.13,2.57-4.14,4.81-6.02,6.73-1.88,1.91-3.89,3.5-6.02,4.75-2.13,1.25-4.53,2.18-7.2,2.78-2.66.59-5.81.89-9.45.89-4.26,0-8.23-.63-11.9-1.88-3.67-1.25-6.87-3.18-9.6-5.79-2.73-2.6-4.88-5.86-6.45-9.78-1.57-3.92-2.35-8.54-2.35-13.88,0-10.47,3.59-18.22,10.77-23.24,7.18-5.02,17.98-7.74,32.41-8.18l15.8-.56v-10.63c0-3.2-.13-6.15-.38-8.84-.25-2.7-.78-5.02-1.6-6.96-.82-1.94-2.02-3.45-3.62-4.52-1.6-1.07-3.72-1.6-6.35-1.6ZM541.41,108.84c0,5.52.88,9.66,2.63,12.42,1.76,2.76,4.52,4.14,8.28,4.14,2.76,0,5.25-.58,7.48-1.74,2.22-1.16,4.14-2.81,5.74-4.94,1.6-2.13,2.82-4.72,3.67-7.76.84-3.04,1.27-6.44,1.27-10.21v-14.49l-8.65.56c-3.83.19-7.06.8-9.69,1.83s-4.74,2.46-6.3,4.28c-1.57,1.82-2.7,4.05-3.39,6.68-.69,2.63-1.03,5.71-1.03,9.22Z"/>
    <path class="cls-2" d="M698.99,137.54v-63.41c0-4.14-.27-7.82-.8-11.05-.53-3.23-1.41-5.94-2.63-8.14-1.22-2.19-2.82-3.87-4.79-5.03-1.98-1.16-4.38-1.74-7.2-1.74-3.2,0-5.87.82-8,2.45-2.13,1.63-3.84,3.81-5.13,6.54-1.29,2.73-2.21,5.9-2.78,9.5-.56,3.61-.85,7.38-.85,11.34v36.78c0,2.7.33,4.86.99,6.49.66,1.63,1.58,2.9,2.77,3.81,1.19.91,2.65,1.51,4.38,1.79,1.72.28,3.65.42,5.78.42h.56v10.25h-59.17v-10.25h.38c2.19,0,4.2-.14,6.02-.42s3.4-.89,4.75-1.83,2.4-2.29,3.15-4.05c.75-1.76,1.13-4.08,1.13-6.96v-57.01c0-2.7-.33-4.86-.99-6.49-.66-1.63-1.6-2.9-2.82-3.81-1.23-.91-2.68-1.51-4.38-1.79s-3.61-.42-5.74-.42h-.56v-10.25h40.45l2.54,13.73h.94c1.94-3.64,4-6.52,6.16-8.65,2.17-2.13,4.47-3.76,6.92-4.89,2.45-1.13,5.03-1.85,7.76-2.16,2.73-.31,5.6-.47,8.61-.47,4.95,0,9.41.72,13.36,2.16,3.95,1.44,7.29,3.67,10.02,6.68,2.73,3.01,4.81,6.85,6.26,11.52,1.44,4.67,2.16,10.27,2.16,16.79v44.69c0,3.01.27,5.41.8,7.2.53,1.79,1.33,3.15,2.4,4.09,1.07.94,2.41,1.57,4.05,1.88,1.63.31,3.54.47,5.74.47h.56v10.25h-42.8Z"/>
    <path class="cls-2" d="M802.47,43.56c-2.45,0-4.5.52-6.16,1.55-1.66,1.03-3,2.48-4,4.33-1,1.85-1.71,4.05-2.12,6.59-.41,2.54-.61,5.32-.61,8.33-8.65,0-15.16-.97-19.52-2.92-4.36-1.94-6.54-5.27-6.54-9.97,0-3.51,1.05-6.52,3.15-9.03,2.1-2.51,4.96-4.55,8.56-6.11,3.61-1.57,7.81-2.71,12.61-3.43,4.79-.72,9.92-1.08,15.38-1.08,6.77,0,12.68.58,17.73,1.74,5.05,1.16,9.25,3.03,12.61,5.6,3.35,2.57,5.88,5.94,7.57,10.11,1.69,4.17,2.54,9.27,2.54,15.29v49.11c0,2.63.2,4.83.61,6.59.41,1.76,1.05,3.15,1.93,4.19.88,1.03,2.07,1.77,3.57,2.21,1.51.44,3.32.66,5.46.66h.75v10.25h-35.84l-4.05-13.26h-1.69c-2.13,2.57-4.14,4.81-6.02,6.73-1.88,1.91-3.89,3.5-6.02,4.75-2.13,1.25-4.53,2.18-7.2,2.78-2.67.59-5.82.89-9.46.89-4.27,0-8.23-.63-11.9-1.88-3.67-1.25-6.86-3.18-9.6-5.79-2.73-2.6-4.88-5.86-6.44-9.78-1.57-3.92-2.35-8.54-2.35-13.88,0-10.47,3.59-18.22,10.77-23.24,7.18-5.02,17.98-7.74,32.41-8.18l15.8-.56v-10.63c0-3.2-.13-6.15-.38-8.84-.25-2.7-.79-5.02-1.6-6.96-.82-1.94-2.02-3.45-3.62-4.52-1.6-1.07-3.71-1.6-6.35-1.6ZM785.35,108.84c0,5.52.88,9.66,2.63,12.42,1.75,2.76,4.52,4.14,8.28,4.14,2.76,0,5.25-.58,7.48-1.74,2.23-1.16,4.14-2.81,5.74-4.94,1.6-2.13,2.82-4.72,3.67-7.76.85-3.04,1.27-6.44,1.27-10.21v-14.49l-8.65.56c-3.83.19-7.06.8-9.69,1.83s-4.74,2.46-6.3,4.28c-1.57,1.82-2.7,4.05-3.39,6.68-.69,2.63-1.03,5.71-1.03,9.22Z"/>
  </g>
  <g>
    <path class="cls-2" d="M472.9,268.22c0,8.36-5.14,12.41-10.97,12.41-2.26,0-4.48-.7-5.92-2.05l-1.44-2.48v12.45h-2.7v-31.69h2.7v4.4l1.52-2.52c1.61-1.57,3.88-2.35,6.53-2.35,6.45,0,10.28,5.01,10.28,11.84ZM469.94,268.57c0-5.53-2.65-10.01-7.7-10.01-4.09,0-7.66,2.44-7.66,9.4v1.74c0,6.57,3.96,8.79,7.36,8.79,4.62,0,8.01-3.7,8.01-9.92Z"/>
    <path class="cls-2" d="M497.87,268.53c0,6.75-3.87,12.1-11.19,12.1s-11.19-5.35-11.19-12.1,3.87-12.14,11.19-12.14,11.19,5.35,11.19,12.14ZM494.91,268.53c0-6.27-3.44-9.97-8.23-9.97s-8.23,3.7-8.23,9.97,3.44,9.97,8.23,9.97,8.23-3.7,8.23-9.97Z"/>
    <path class="cls-2" d="M524.63,280.02h-3.27l-5.66-20.28-5.66,20.28h-3.31l-7.31-23.03h3.09l5.92,20.55,5.61-20.5h3.44l5.66,20.28,5.88-20.33h2.87l-7.27,23.03Z"/>
    <path class="cls-2" d="M553.86,269.31h-17.45c.3,6.79,3.74,9.18,7.49,9.18,3.22,0,6.09-1.96,6.92-5.75h2.83c-1.09,5.35-5.31,7.88-9.93,7.88-5.74,0-10.23-4.01-10.23-12.1,0-7.4,4.61-12.14,10.66-12.14,6.44,0,9.8,5.14,9.8,11.49,0,.3,0,.74-.09,1.44ZM536.4,267.18h14.8c-.3-5.92-3.27-8.62-7.14-8.62s-7.27,2.87-7.66,8.62Z"/>
    <path class="cls-2" d="M568.47,256.64v2.13c-4.01-.3-6.96,2.18-6.96,8.31v12.93h-2.7v-23.03h2.7v4.18l1.65-2.96c1.04-1.09,2.48-1.74,3.96-1.74.48,0,.96.04,1.35.17Z"/>
    <path class="cls-2" d="M590.1,269.31h-17.46c.31,6.79,3.74,9.18,7.49,9.18,3.22,0,6.09-1.96,6.92-5.75h2.83c-1.09,5.35-5.31,7.88-9.92,7.88-5.75,0-10.23-4.01-10.23-12.1,0-7.4,4.61-12.14,10.66-12.14,6.44,0,9.79,5.14,9.79,11.49,0,.3,0,.74-.09,1.44ZM572.64,267.18h14.8c-.3-5.92-3.26-8.62-7.14-8.62s-7.27,2.87-7.66,8.62Z"/>
    <path class="cls-2" d="M614.2,280.02h-2.7v-4.27l-1.52,2.52c-1.61,1.61-3.88,2.35-6.53,2.35-6.44,0-10.27-5.01-10.27-11.84,0-8.36,5.14-12.41,10.97-12.41,2.26,0,4.48.7,5.92,2.09l1.44,2.48v-12.93h2.7v31.99ZM611.5,269.05v-1.74c0-6.53-3.96-8.75-7.36-8.75-4.62,0-8.01,3.66-8.01,9.88,0,5.53,2.66,10.06,7.71,10.06,4.09,0,7.66-2.48,7.66-9.45Z"/>
    <path class="cls-2" d="M650.53,268.22c0,8.36-5.14,12.41-10.97,12.41-2.26,0-4.48-.7-5.92-2.05l-1.44-2.48v3.92h-2.7v-31.99h2.7v13.23l1.52-2.52c1.61-1.57,3.88-2.35,6.53-2.35,6.45,0,10.28,5.01,10.28,11.84ZM647.57,268.57c0-5.53-2.65-10.01-7.7-10.01-4.09,0-7.66,2.44-7.66,9.4v1.74c0,6.57,3.96,8.79,7.36,8.79,4.62,0,8.01-3.7,8.01-9.92Z"/>
    <path class="cls-2" d="M663.71,281.24c-2.35,6.1-4.57,7.92-7.84,7.92-.78,0-1.26,0-1.78-.13v-2.22c.56.09,1,.09,1.48.09,2.09,0,3.66-1.09,5.14-4.79l.48-1.22-9.1-23.9h3.05l7.44,21.02,7.4-21.02h2.96l-9.23,24.25Z"/>
    <path class="cls-2" d="M697.24,252.2v27.81h-2.69v-27.81h-11.02v-2.22h24.73v2.22h-11.02Z"/>
    <path class="cls-2" d="M727.01,269.31h-17.46c.3,6.79,3.74,9.18,7.49,9.18,3.22,0,6.09-1.96,6.92-5.75h2.83c-1.09,5.35-5.31,7.88-9.92,7.88-5.75,0-10.23-4.01-10.23-12.1,0-7.4,4.61-12.14,10.66-12.14,6.44,0,9.79,5.14,9.79,11.49,0,.3,0,.74-.08,1.44ZM709.55,267.18h14.8c-.3-5.92-3.26-8.62-7.14-8.62s-7.27,2.87-7.66,8.62Z"/>
    <path class="cls-2" d="M750.33,264.52h-2.83c-.79-3.87-3.09-6.01-6.79-6.01s-7.66,3.13-7.66,9.79c0,7.1,3.57,10.19,7.44,10.19,3.4,0,6.01-1.96,6.83-5.66h2.79c-1.04,5.09-4.83,7.79-9.8,7.79-5.74,0-10.23-3.96-10.23-12.1,0-7.62,4.92-12.14,10.71-12.14,5.31,0,8.84,3.26,9.53,8.14Z"/>
    <path class="cls-2" d="M773.38,267.13v12.89h-2.7v-12.58c0-1.3,0-2.31-.08-3.48-.3-3.13-2.05-5.4-5.92-5.35-3.83.04-7.18,2.79-7.18,9.97v11.45h-2.7v-32.21h2.7v13.62l1.22-2.48c1.87-1.87,3.92-2.57,6.49-2.57,4.88,0,7.66,2.66,8.1,6.88.09,1.18.09,2,.09,3.87Z"/>
    <path class="cls-2" d="M800.14,280.02h-19.46v-30.03h2.7v27.81h16.76v2.22Z"/>
    <path class="cls-2" d="M807.18,252.03c0,1-.78,1.83-1.83,1.83s-1.83-.83-1.83-1.83.83-1.83,1.83-1.83,1.83.78,1.83,1.83ZM804,280.02v-23.03h2.7v23.03h-2.7Z"/>
    <path class="cls-2" d="M831.72,267.13v12.89h-2.7v-12.58c0-1.3,0-2.31-.09-3.48-.3-3.13-2.05-5.35-5.92-5.35s-7.18,2.79-7.18,9.97v11.45h-2.7v-23.03h2.7v4.44l1.22-2.48c1.88-1.87,3.92-2.57,6.49-2.57,4.87,0,7.66,2.66,8.1,6.88.08,1.18.08,2,.08,3.87Z"/>
    <path class="cls-2" d="M842.68,269.7l-2.09,2.22v8.1h-2.7v-31.99h2.7v20.94l11.8-11.97h3.53l-11.28,11.01,11.36,12.01h-3.74l-9.57-10.32Z"/>
  </g>
  <g>
    <circle class="cls-1" cx="15.54" cy="269.56" r="15.54"/>
    <circle class="cls-1" cx="65.26" cy="269.56" r="15.54"/>
    <circle class="cls-1" cx="114.98" cy="269.56" r="15.54"/>
    <circle class="cls-1" cx="164.7" cy="269.56" r="15.54"/>
    <circle class="cls-1" cx="214.42" cy="269.56" r="15.54"/>
    <circle class="cls-1" cx="264.14" cy="269.56" r="15.54"/>
    <circle class="cls-1" cx="313.86" cy="269.56" r="15.54"/>
    <circle class="cls-1" cx="363.58" cy="269.56" r="15.54"/>
    <circle class="cls-1" cx="413.3" cy="269.56" r="15.54"/>
  </g>
  <g>
    <path class="cls-2" d="M0,220.57v-64.68h5.61v64.68H0Z"/>
    <path class="cls-2" d="M57.15,192.83v27.75h-5.61v-27.09c0-2.81,0-4.97-.18-7.5-.63-6.75-4.25-11.53-12.3-11.53s-14.92,6-14.92,21.47v24.65h-5.61v-49.59h5.61v9.56l2.53-5.34c3.89-4.03,8.14-5.53,13.47-5.53,10.13,0,15.92,5.72,16.82,14.81.18,2.53.18,4.31.18,8.34Z"/>
    <path class="cls-2" d="M108.14,192.83v27.75h-5.61v-27.09c0-2.81,0-4.97-.18-7.5-.63-6.75-4.25-11.53-12.3-11.53s-14.92,6-14.92,21.47v24.65h-5.61v-49.59h5.61v9.56l2.53-5.34c3.89-4.03,8.14-5.53,13.47-5.53,10.13,0,15.92,5.72,16.82,14.81.18,2.53.18,4.31.18,8.34Z"/>
    <path class="cls-2" d="M163.11,195.83c0,14.53-8.05,26.06-23.24,26.06s-23.24-11.53-23.24-26.06,8.05-26.15,23.24-26.15,23.24,11.53,23.24,26.15ZM156.96,195.83c0-13.5-7.14-21.47-17.09-21.47s-17.09,7.97-17.09,21.47,7.14,21.47,17.09,21.47,17.09-7.97,17.09-21.47Z"/>
    <path class="cls-2" d="M191.22,220.57h-6.96l-18.36-49.59h6.15l15.92,45.28,15.73-45.28h5.97l-18.45,49.59Z"/>
    <path class="cls-2" d="M244.29,211.58l-2.35,5.25c-3.35,3.47-8.05,5.06-13.29,5.06-8.86,0-15.19-4.78-15.19-13.78,0-11.34,10.4-16.88,27.67-16.88h3.07v-1.78c0-2.25,0-4.13-.18-6.09-.45-5.72-3.8-9-10.67-9s-11.3,3.66-12.03,11.34h-5.88c.63-9.75,7.78-16.03,17.91-16.03s15.55,4.97,16.28,13.12c.18,2.16.18,4.22.18,6.56v17.34c0,4.41.27,7.97.9,13.87h-5.61l-.81-9ZM244.2,201.45v-5.72c-13.47-.94-24.6,2.34-24.6,11.9,0,6.28,3.8,9.66,10.76,9.66,8.32,0,13.84-6.56,13.84-15.84Z"/>
    <path class="cls-2" d="M269.96,206.98c0,2.06,0,3.1.09,4.41.36,4.78,2.35,6,8.77,5.16v4.31c-1.9.37-3.89.47-5.79.47-5.34,0-8.14-2.44-8.59-7.87-.09-1.69-.09-3.56-.09-6.38v-31.22h-6.15v-4.5h6.15v-10.97h5.61v10.97h9.13v4.5h-9.13v31.12Z"/>
    <path class="cls-2" d="M294.55,160.3c0,2.16-1.63,3.94-3.8,3.94s-3.8-1.78-3.8-3.94,1.72-3.94,3.8-3.94,3.8,1.69,3.8,3.94ZM287.95,220.57v-49.59h5.61v49.59h-5.61Z"/>
    <path class="cls-2" d="M349.08,195.83c0,14.53-8.05,26.06-23.24,26.06s-23.24-11.53-23.24-26.06,8.05-26.15,23.24-26.15,23.24,11.53,23.24,26.15ZM342.93,195.83c0-13.5-7.14-21.47-17.09-21.47s-17.09,7.97-17.09,21.47,7.14,21.47,17.09,21.47,17.09-7.97,17.09-21.47Z"/>
    <path class="cls-2" d="M396.54,192.83v27.75h-5.61v-27.09c0-2.81,0-4.97-.18-7.5-.63-6.75-4.25-11.53-12.3-11.53s-14.92,6-14.92,21.47v24.65h-5.6v-49.59h5.6v9.56l2.53-5.34c3.89-4.03,8.14-5.53,13.47-5.53,10.13,0,15.91,5.72,16.82,14.81.18,2.53.18,4.31.18,8.34Z"/>
    <path class="cls-2" d="M470.77,174.36c0,11.06-7.05,17.25-15.83,18.47-2.8.37-5.25.37-8.41.37h-11.67v27.37h-5.6v-64.68h17.27c3.17,0,5.61,0,8.41.37,9.4,1.31,15.83,7.12,15.83,18.09ZM464.71,174.36c0-8.25-4.52-12.09-10.22-13.03-2.08-.37-4.52-.47-7.5-.47h-12.12v27.37h12.12c2.98,0,5.43-.09,7.5-.47,5.7-.94,10.22-4.88,10.22-13.41Z"/>
    <path class="cls-2" d="M505.75,211.58l-2.35,5.25c-3.35,3.47-8.05,5.06-13.29,5.06-8.86,0-15.19-4.78-15.19-13.78,0-11.34,10.4-16.88,27.67-16.88h3.07v-1.78c0-2.25,0-4.13-.18-6.09-.45-5.72-3.8-9-10.67-9s-11.3,3.66-12.03,11.34h-5.88c.63-9.75,7.78-16.03,17.9-16.03s15.55,4.97,16.28,13.12c.18,2.16.18,4.22.18,6.56v17.34c0,4.41.27,7.97.9,13.87h-5.6l-.82-9ZM505.66,201.45v-5.72c-13.47-.94-24.6,2.34-24.6,11.9,0,6.28,3.8,9.66,10.76,9.66,8.32,0,13.84-6.56,13.84-15.84Z"/>
    <path class="cls-2" d="M544.26,170.23v4.59c-8.32-.66-14.47,4.69-14.47,17.9v27.84h-5.61v-49.59h5.61v9l3.44-6.37c2.17-2.34,5.15-3.75,8.23-3.75.99,0,1.99.09,2.8.37Z"/>
    <path class="cls-2" d="M558.37,206.98c0,2.06,0,3.1.09,4.41.36,4.78,2.35,6,8.77,5.16v4.31c-1.9.37-3.89.47-5.79.47-5.33,0-8.14-2.44-8.59-7.87-.09-1.69-.09-3.56-.09-6.38v-31.22h-6.15v-4.5h6.15v-10.97h5.61v10.97h9.13v4.5h-9.13v31.12Z"/>
    <path class="cls-2" d="M614.97,192.83v27.75h-5.61v-27.09c0-2.81,0-4.97-.18-7.5-.63-6.75-4.25-11.53-12.3-11.53s-14.92,6-14.92,21.47v24.65h-5.61v-49.59h5.61v9.56l2.53-5.34c3.89-4.03,8.14-5.53,13.47-5.53,10.13,0,15.92,5.72,16.82,14.81.18,2.53.18,4.31.18,8.34Z"/>
    <path class="cls-2" d="M665.78,197.51h-36.26c.63,14.62,7.78,19.78,15.55,19.78,6.69,0,12.66-4.22,14.38-12.37h5.88c-2.26,11.53-11.03,16.97-20.62,16.97-11.93,0-21.25-8.62-21.25-26.06,0-15.94,9.59-26.15,22.15-26.15,13.38,0,20.35,11.06,20.35,24.75,0,.66,0,1.59-.18,3.09ZM629.51,192.92h30.75c-.63-12.75-6.78-18.56-14.83-18.56s-15.1,6.19-15.92,18.56Z"/>
    <path class="cls-2" d="M695.7,170.23v4.59c-8.32-.66-14.47,4.69-14.47,17.9v27.84h-5.61v-49.59h5.61v9l3.44-6.37c2.17-2.34,5.15-3.75,8.23-3.75.99,0,1.99.09,2.8.37Z"/>
    <path class="cls-2" d="M733.22,184.86h-5.88c-1.36-6.84-5.25-10.5-11.67-10.5-5.79,0-9.68,3.37-9.68,8.81,0,5.72,4.52,7.97,11.4,9.75,11.03,2.81,16.28,6.94,16.28,15.28,0,8.81-7.23,13.69-17.09,13.69s-17-4.69-18.36-15.94h5.79c1.35,8.44,6.51,11.34,12.93,11.34,6.06,0,11.03-2.91,11.03-8.62s-3.44-8.25-12.75-10.59c-8.23-2.25-15.01-5.72-15.01-14.25s6.51-14.16,15.92-14.16c10.4,0,16,6.47,17.09,15.19Z"/>
    <path class="cls-2" d="M781.41,192.83v27.75h-5.61v-27.09c0-2.81,0-4.97-.18-7.5-.63-6.75-4.25-11.62-12.3-11.53-7.96.09-14.92,6-14.92,21.47v24.65h-5.61v-69.37h5.61v29.34l2.53-5.34c3.89-4.03,8.14-5.53,13.47-5.53,10.13,0,15.92,5.72,16.82,14.81.18,2.53.18,4.31.18,8.34Z"/>
    <path class="cls-2" d="M800.39,160.3c0,2.16-1.63,3.94-3.8,3.94s-3.8-1.78-3.8-3.94,1.72-3.94,3.8-3.94,3.8,1.69,3.8,3.94ZM793.79,220.57v-49.59h5.61v49.59h-5.61Z"/>
    <path class="cls-2" d="M856,195.17c0,18-10.67,26.72-22.79,26.72-4.7,0-9.32-1.5-12.3-4.41l-2.98-5.34v26.81h-5.61v-68.25h5.61v9.47l3.17-5.44c3.35-3.37,8.05-5.06,13.56-5.06,13.38,0,21.34,10.78,21.34,25.5ZM849.85,195.92c0-11.91-5.52-21.56-16-21.56-8.5,0-15.92,5.25-15.92,20.25v3.75c0,14.16,8.23,18.94,15.28,18.94,9.58,0,16.64-7.97,16.64-21.37Z"/>
  </g>
</svg>