<?xml version="1.0" encoding="UTF-8"?>
<svg id="Layer_1" data-name="Layer 1" xmlns="http://www.w3.org/2000/svg" viewBox="0 0 566.61 77.97">
  <defs>
    <style>
      .cls-1 {
        fill: #eef7ff;
      }

      .cls-1, .cls-2 {
        stroke: #0878ff;
        stroke-miterlimit: 10;
        stroke-width: 1px;
      }

      .cls-2 {
        fill: none;
      }
    </style>
  </defs>
  <path id="Path_849" data-name="Path 849" class="cls-2" d="M173.04,16.95c11.8,20.84,20.73,58.95,36.02,58.95,21.06,0,30.02-72.21,51.08-72.21s30.03,72.21,51.09,72.21S341.23,3.7,362.29,3.7s30.02,72.21,51.08,72.21c5.27,0,9.77-4.51,13.9-11.27M434.16,51.01c9.24-20.88,17.56-47.31,30.3-47.31,20.71,0,27.22,69.88,51.08,72.21,14.54,1.43,31.57-22.64,51.08-72.21M4.73,75.91C24.27,26.28,41.29,2.28,55.81,3.7c23.85,2.34,30.37,72.21,51.08,72.21S136.91,3.7,157.98,3.7c1.84.02,3.64.55,5.2,1.52M167.82,19.02h0c-4.25,0-7.7-3.42-7.71-7.67,0-4.25,3.42-7.7,7.67-7.71,4.25,0,7.7,3.42,7.71,7.67,0,0,0,.01,0,.02,0,4.24-3.44,7.67-7.67,7.69h0ZM431.47,65.89h0c-4.24,0-7.68-3.43-7.69-7.67,0-4.24,3.43-7.68,7.67-7.69,4.24,0,7.68,3.43,7.69,7.67h0c0,4.24-3.43,7.67-7.67,7.69Z"/>
  <circle class="cls-1" cx="431.46" cy="58.22" r="7.68"/>
  <circle class="cls-1" cx="167.82" cy="11.34" r="7.68"/>
</svg>